PathFileType	4	(X/Y/Z)	Patient4_TMGait_0pt4_01_right_33.trc.trc
DataRate	CameraRate	NumFrames	NumMarkers	Units	OrigDataRate	OrigDataStartFrame	OrigNumFrames
75.268817204301	75.268817204301	4	33	mm	75.268817204301	106	       141
Frame#	Time	Sacral			L.Shoulder			Chest			R.Shoulder			Neck			R.ASIS			L.ASIS			R.Thigh.Superior			R.Thigh.Lateral			R.Thigh.Inferior			R.Patella			L.Thigh.Superior			L.Thigh.Lateral			L.Thigh.Inferior			L.Patella			L.Shank.Superior			L.Shank.Lateral			L.Shank.Inferior			R.Shank.Superior			R.Shank.Lateral			R.Shank.Inferior			R.Heel			R.Midfoot.Superior			R.Midfoot.Lateral			R.Toe			L.Heel			L.Midfoot.Lateral			L.Midfoot.Superior			L.Toe			L.Elbow			L.Wrist			R.Elbow			R.Wrist			
		X1	Y1	Z1	X2	Y2	Z2	X3	Y3	Z3	X4	Y4	Z4	X5	Y5	Z5	X6	Y6	Z6	X7	Y7	Z7	X8	Y8	Z8	X9	Y9	Z9	X10	Y10	Z10	X11	Y11	Z11	X12	Y12	Z12	X13	Y13	Z13	X14	Y14	Z14	X15	Y15	Z15	X16	Y16	Z16	X17	Y17	Z17	X18	Y18	Z18	X19	Y19	Z19	X20	Y20	Z20	X21	Y21	Z21	X22	Y22	Z22	X23	Y23	Z23	X24	Y24	Z24	X25	Y25	Z25	X26	Y26	Z26	X27	Y27	Z27	X28	Y28	Z28	X29	Y29	Z29	X30	Y30	Z30	X31	Y31	Z31	X32	Y32	Z32	X33	Y33	Z33	

106	44.245000000000	816.428892815718	1015.475788388012	444.501271344476	1014.067427961016	1424.254447392625	228.583145251629	1103.569949406290	1372.327865076949	402.457027361969	1009.794652565575	1461.233805982619	563.250218226218	984.120891548975	1501.546052310309	377.683845747174	1044.441522412046	960.584355406249	566.452466802595	1034.969542034149	964.874295357590	291.239237406094	1128.361067286224	792.562435223480	541.964608224233	1096.827128092735	672.384300167747	623.452048428988	1182.351534282081	633.178409880521	540.823841510887	1214.356979281624	533.889517040375	566.848018196231	1065.648064641204	749.763521565739	321.295340591307	965.004279951715	639.279122760744	267.076093024338	1047.732454510702	558.206696500520	326.203148557717	1043.008616596644	492.644027512381	336.809108441440	1019.200079255068	421.434950995936	332.886595719316	928.313056317538	303.134410810623	292.872158167825	989.747370273087	196.320772304746	364.669538947833	1165.599036045251	447.624592043897	580.792104835143	1074.147545294336	368.843795512197	653.119307697793	1099.018783632047	260.098633230112	605.900361527193	938.186614514112	119.941202188748	595.675855297783	1116.674639254694	137.950925232102	621.297293332955	1021.438193219896	94.459922624190	666.207530559965	1225.197190797372	66.624093284458	647.669345499594	868.814475905224	38.337732087969	418.349479111103	942.822750670444	35.005888896967	337.185878136494	1025.722728594259	97.743252314061	361.624080093628	1154.530993952794	46.918613857238	336.816786679755	1072.389970196055	1079.659425192933	109.540371572084	1235.129523272379	876.111772688071	97.068274098881	890.060901674133	1146.181190880990	702.987347884437	881.544265609456	885.931386480987	728.060975280230	
107	44.258285714286	815.077297256381	1015.600883585002	443.971045143528	1014.161638378024	1423.978481519585	228.322564558882	1102.908308531456	1372.022859759962	402.556405675390	1008.810255819102	1461.250909779617	562.958278060016	983.597375079078	1501.411094950384	377.338765389648	1042.781012380765	960.412097775487	566.501760009583	1033.733740495921	964.801012561831	291.257498686360	1125.829173005240	792.165225064527	541.560349207752	1094.620411676507	672.133385756983	623.354192718048	1179.435285070855	632.822775768208	540.020035053941	1212.633275872707	535.332271066596	565.651889074972	1063.068311785702	749.187834723815	321.595018554927	961.585893397164	639.336232117564	266.918707600751	1043.235922547990	557.718243151949	326.496743630757	1037.989649086181	492.410920875012	337.121028483112	1014.133963175407	421.323957261717	333.076115625491	923.306073636866	303.106259871188	292.811501734776	984.470564932308	196.255073460848	364.794490641838	1167.418051571201	448.439809267566	580.218252800916	1080.248703589616	365.647516162318	653.474359985296	1109.744109811341	258.075428301446	605.963385261584	955.522286888655	110.359231529150	596.880403305954	1133.101380627275	136.734665116839	621.334482999575	1040.322170516297	89.046918361375	667.039302879306	1245.097512620546	70.610290537866	647.532864506129	863.465639302488	38.283120775755	418.343810015739	937.454196239871	34.987564936302	337.190751070788	1020.333355147299	97.748457811548	361.671923059088	1149.150484894611	46.974285248361	336.845478297282	1073.307904068473	1079.746339801121	109.007162159263	1240.463956717626	879.592220198880	97.661467323592	883.390119036238	1148.684966095754	701.947622945915	868.996461126675	888.848403669446	727.828761144322	
108	44.271571428571	813.776410898917	1015.668126460868	443.501473772508	1014.199352149001	1423.637731637938	228.223732015144	1102.253447718417	1371.674766498778	402.789541500807	1007.868138586446	1461.223660619331	562.827106411293	983.075134190729	1501.224006216890	377.149087400520	1041.157101561250	960.094231554650	566.658014853693	1032.536347093913	964.772979959604	291.402591523904	1123.160731650122	791.482386344896	541.365467200562	1092.007535551820	671.578580158741	623.402291362147	1176.321475129720	632.149004692601	539.577212670910	1210.497467967538	536.434230529443	564.724671561413	1060.472497752860	748.588142103299	321.929701019473	958.128898739625	639.405674992414	266.776565679848	1038.637718615069	557.229728609778	326.810933926379	1032.851007103203	492.170547164384	337.439123747431	1008.953283930745	421.236415014500	333.261268694391	918.203189635773	303.084424896944	292.752437557826	979.139176209222	196.204578810718	364.915014992776	1168.751067878616	449.062263838108	579.735646101001	1085.769736554442	362.532574477728	653.674237279048	1119.718929401249	256.327176225460	605.808987717906	972.212761367510	101.626512541563	597.486321524040	1148.518622303724	135.967277528693	621.035419920917	1058.231821555748	84.282438354870	667.319922116174	1263.597008011086	74.946324370921	647.052087762360	858.112282971931	38.226420222263	418.339206498832	932.081004641003	34.963906840623	337.197408058446	1014.938106497632	97.758928245431	361.709055712998	1143.761953069331	47.042149461322	336.876513130814	1073.812403883931	1079.668338323374	108.670459436743	1245.091778877365	882.818027371927	98.583978219204	877.502588906341	1150.968401545875	701.161962453030	858.114092154813	891.564287421868	727.705768593370	
109	44.284857142857	812.541229762038	1015.677341301699	443.092400892981	1014.165929353362	1423.245901052434	228.285668968238	1101.600619832068	1371.296684757990	403.151462301547	1006.960567830490	1461.155822548180	562.853987601822	982.540628134650	1500.988890590892	377.113092581799	1039.591459900394	959.638950883356	566.916713676894	1031.407631323427	964.791427672793	291.663425084121	1120.434008300338	790.551789072042	541.394425054186	1089.068581062629	670.728491477907	623.563392187997	1173.117987988942	631.194807312853	539.483074906650	1208.038655734946	537.190480535682	564.055055666104	1057.866495988409	747.967191954980	322.285534934144	954.629809616689	639.491849465239	266.644485498734	1033.952017184298	556.745177184909	327.118539603346	1027.610412087661	491.919690624779	337.733574417310	1003.674251210610	421.176366075772	333.419437938111	913.001256323696	303.077024687811	292.689919159711	973.755438923072	196.172595465919	365.017588159961	1169.611713849665	449.470380714743	579.313877955136	1090.624233014637	359.510839276670	653.667247159036	1128.778260961884	254.817964039831	605.397192336642	987.910470674272	93.802134944256	597.431321308504	1162.657418017248	135.562875791025	620.368288845077	1074.831480060059	80.131537483712	667.006815560502	1280.402583429976	79.429651542342	646.208928569652	852.752150433069	38.171408912908	418.336066828856	926.703504924090	34.935015414342	337.205744925860	1009.539703738632	97.773847296990	361.731022156358	1138.368026469699	47.116213312126	336.908416133825	1073.929983082213	1079.438408526682	108.546570477701	1248.984000131216	885.741093236032	99.814694941758	872.416051785112	1152.983925712245	700.652615255516	848.934483003060	893.975112978630	727.725511587570	
